<svg width="97" height="31" viewBox="0 0 97 31" fill="none" xmlns="http://www.w3.org/2000/svg">
<g clip-path="url(#clip0_4404_555)">
<path d="M96.8221 0H0V30.4492H96.8221V0Z" fill="white"/>
<path d="M68.043 15.5724V14.5273L69.0943 14.408C69.4605 14.3647 69.6169 14.0294 69.6601 13.9533L72.2914 9.66982C72.5054 9.33446 72.2976 9.03614 72.0219 9.00323L70.6373 8.84275V7.7832H76.6284C76.9617 7.7832 77.1777 8.01569 77.3176 8.21525L80.8172 13.5706C81.0929 14.0006 81.3048 14.3359 81.6546 14.3833L82.7553 14.5067V15.5765H76.0215V14.5211L76.8773 14.4162C77.2868 14.3689 77.6221 14.1837 77.2868 13.6817L76.9637 13.192H72.1865L71.8203 13.7866C71.5919 14.1508 71.8203 14.3689 72.1701 14.4141L73.0259 14.5191V15.5745H68.045M73.0403 11.8095H76.0626L74.5381 9.40647L73.0424 11.8095" fill="#DC0100"/>
<path d="M63.578 7.78135H55.8732V8.8409L56.8422 8.9376C57.2002 8.99109 57.3462 9.25238 57.3462 9.60625V13.7992C57.3462 14.0893 57.2248 14.365 56.906 14.4102L55.8711 14.5439V15.5665L63.578 15.5706C67.127 15.5706 68.6515 13.8444 68.6515 11.5628C68.6515 9.51366 67.127 7.7793 63.578 7.7793M62.3889 14.0769H60.4035V9.27295H62.3889C64.2816 9.27295 65.0799 9.71323 65.0799 11.6719C65.0799 13.6305 64.2816 14.079 62.3889 14.079" fill="#DC0100"/>
<path d="M14.043 15.5726H20.2768V14.5337L19.209 14.4123C18.9663 14.3794 18.7214 14.2271 18.7214 13.7066V12.4516H23.5192V13.6428C23.5192 13.9967 23.4596 14.332 23.044 14.3773L21.9598 14.5007V15.5706H28.1936V14.5007L27.095 14.3773C26.881 14.3464 26.6362 14.1757 26.6362 13.7354V9.68237C26.6362 9.26884 26.7864 8.99109 27.1094 8.96229L28.1936 8.83884V7.7793H21.9598V8.82444L23.044 8.96229C23.4102 9.00755 23.5192 9.29764 23.5192 9.68237V10.8921H18.7214V9.66591C18.7214 9.20506 18.9045 8.99109 19.2255 8.96229L20.2789 8.83884V7.7793H14.0594V8.83884L15.1005 8.96229C15.514 9.00755 15.621 9.3141 15.6045 9.71117V13.6613C15.6045 14.1016 15.4831 14.365 15.0861 14.4123L14.045 14.5337V15.5726" fill="#DC0100"/>
<path d="M28.498 11.6385C28.498 9.19437 30.469 7.47852 34.8677 7.47852C39.2664 7.47852 41.2126 9.19437 41.2126 11.6385C41.2126 14.0827 39.2396 15.8459 34.8677 15.8459C30.4958 15.8459 28.498 14.1465 28.498 11.6385ZM34.8533 8.97834C33.0819 8.97834 32.0758 9.6367 32.0758 11.655C32.0758 13.6733 33.0839 14.3646 34.8533 14.3646C36.6226 14.3646 37.6349 13.7062 37.6349 11.655C37.6349 9.60379 36.6247 8.97834 34.8533 8.97834Z" fill="#DC0100"/>
<path d="M41.5586 15.572H46.5395V14.5331L45.4697 14.4117C45.1652 14.3788 44.98 14.1216 44.98 13.7677V9.80522L49.1215 15.2676C49.2593 15.4486 49.5186 15.572 49.7655 15.572H53.6745V9.66738C53.6745 9.38963 53.7465 9.01107 54.1477 8.96375L55.234 8.84031V7.78076H50.2531V8.82591L51.3414 8.96375C51.722 9.00901 51.8146 9.32997 51.8146 9.69618V13.5538L47.7019 8.12229C47.5497 7.92272 47.3522 7.78076 47.0621 7.78076H41.5606V8.84031L42.5996 8.96375C42.9658 9.0193 43.1037 9.20447 43.1037 9.71264V13.6628C43.1037 14.1298 42.9761 14.3541 42.5832 14.4137L41.5606 14.5351V15.5741" fill="#DC0100"/>
<path d="M14.3359 19.2389H15.9962V22.6459H16.5991V19.2389H18.2388V18.7842H14.3359V19.2389Z" fill="black"/>
<path d="M20.7966 19.6236C20.2679 19.6236 19.8338 19.8355 19.5725 20.2182V18.7842H18.9902V22.6459H19.5725V21.2715C19.5725 20.3498 20.1609 20.0227 20.7102 20.0227C21.2924 20.0227 21.599 20.3622 21.599 21V22.6459H22.1771V20.9732C22.1771 20.103 21.6854 19.6215 20.7946 19.6215L20.7966 19.6236Z" fill="black"/>
<path d="M35.3864 19.9262C35.0778 19.6464 34.621 19.5044 34.0326 19.5044C33.4442 19.5044 33.0081 19.6566 32.6953 19.9467C32.3929 20.2245 32.2324 20.6277 32.2324 21.1071C32.2324 21.6173 32.3888 22.0164 32.6953 22.2921C33.0039 22.5699 33.4545 22.7118 34.0326 22.7118C35.1992 22.7118 35.8431 22.1419 35.8431 21.1071C35.8431 20.5969 35.6888 20.1998 35.3884 19.9262H35.3864ZM35.23 21.1071C35.23 21.4486 35.1251 21.7408 34.9255 21.9506C34.7136 22.1728 34.405 22.2921 34.0326 22.2921C33.6602 22.2921 33.3557 22.1749 33.1459 21.9506C32.9484 21.7408 32.8455 21.4486 32.8455 21.1071C32.8455 20.3664 33.2879 19.922 34.0326 19.922C34.7774 19.922 35.23 20.3541 35.23 21.1071Z" fill="black"/>
<path d="M52.9239 19.9262C52.6153 19.6464 52.1606 19.5044 51.5702 19.5044C50.9797 19.5044 50.5435 19.6566 50.2287 19.9467C49.9222 20.2265 49.7617 20.6277 49.7617 21.1071C49.7617 22.1419 50.4036 22.7118 51.5702 22.7118C52.1503 22.7118 52.6009 22.5719 52.9116 22.2921C53.2202 22.0164 53.3765 21.6173 53.3765 21.1071C53.3765 20.5969 53.2243 20.1998 52.9239 19.9262ZM50.6793 20.2533C50.8871 20.0373 51.1957 19.9241 51.5681 19.9241C52.3314 19.9241 52.7696 20.3561 52.7696 21.1091C52.7696 21.4486 52.6626 21.7408 52.4589 21.9506C52.245 22.1749 51.9364 22.2921 51.566 22.2921C50.8377 22.2921 50.3686 21.8272 50.3686 21.1071C50.3686 20.7553 50.4756 20.459 50.6752 20.2533H50.6793Z" fill="black"/>
<path d="M64.8217 19.5416C64.2394 19.5868 63.9308 19.9551 63.7354 20.3131V19.5683H63.2148V22.6482H63.8053V21.027C63.8197 20.7287 63.9329 20.4838 64.1407 20.3028C64.3485 20.1197 64.6118 20.0271 64.9266 20.0271L65.2126 20.0209V19.5416H65.2043C65.1138 19.5333 64.8854 19.5354 64.8217 19.5416Z" fill="black"/>
<path d="M30.1552 18.7822L28.4023 18.7884V22.648H29.001V21.1647H30.2375C30.758 21.1647 31.1613 21.0474 31.437 20.817C31.69 20.603 31.8238 20.2985 31.8238 19.9302C31.8238 19.6237 31.7291 19.3747 31.544 19.1896C31.2744 18.918 30.8054 18.7822 30.1573 18.7822H30.1552ZM31.1819 19.9344C31.1819 20.4796 30.8733 20.7244 30.184 20.7244H28.999V19.2225H30.1429C30.8506 19.2225 31.1819 19.4488 31.1819 19.9344Z" fill="black"/>
<path d="M61.807 19.2862C61.4326 18.9529 60.8545 18.7842 60.0891 18.7842H58.3691V22.65H60.1117C60.8236 22.65 61.3811 22.4792 61.7679 22.15C62.1547 21.8126 62.3522 21.3333 62.3522 20.714C62.3522 20.0947 62.1691 19.6051 61.807 19.2862ZM58.9781 19.2286H59.9492C60.6487 19.2286 61.1013 19.35 61.375 19.6051C61.6177 19.8355 61.7268 20.1791 61.7268 20.7181C61.7268 21.7221 61.1733 22.2097 60.0377 22.2097H58.9781V19.2286Z" fill="black"/>
<path d="M72.6195 21.994V20.7164C72.6195 20.3975 72.6113 20.1321 72.3006 19.8667C72.0352 19.6383 71.5826 19.5107 71.1279 19.5107C70.6732 19.5107 69.8688 19.6445 69.7186 20.2823H70.3523C70.4469 20.0765 70.7411 19.9243 71.1279 19.9243C71.6772 19.9243 72.0558 20.1691 72.0558 20.6402V20.7431H71.7431C71.6896 20.7431 71.6279 20.7431 71.5641 20.7431C71.0271 20.7431 70.2145 20.7637 69.8256 21.1628C69.6795 21.313 69.6055 21.5043 69.6055 21.7307C69.6055 22.3047 70.0992 22.71 70.8337 22.71C71.4077 22.71 71.7616 22.6133 72.0764 22.1915C72.0764 22.1915 72.0805 22.4548 72.1072 22.6482H72.6648C72.6648 22.6482 72.6216 22.3108 72.6216 21.9919L72.6195 21.994ZM72.0537 21.2801C72.0537 21.959 71.7019 22.3005 70.9777 22.3005C70.486 22.3005 70.2165 22.0907 70.2165 21.7307C70.2165 21.6052 70.2577 21.5002 70.342 21.4159C70.5786 21.1752 71.0971 21.1484 71.4818 21.1484C71.5435 21.1484 71.6011 21.1484 71.6546 21.1484C71.6958 21.1484 71.7348 21.1484 71.7678 21.1484H72.0537V21.278V21.2801Z" fill="black"/>
<path d="M77.3195 19.5107C76.6797 19.5107 76.3546 19.9181 76.2003 20.2514C76.0275 19.8049 75.6325 19.5107 75.1654 19.5107C74.6984 19.5107 74.3137 19.7453 74.0915 20.1547C74.0915 20.1547 74.0894 19.8708 74.0668 19.5683H73.5195C73.536 19.7988 73.5401 20.0786 73.5401 20.3213V22.6503H74.1182V21.169C74.1182 20.3255 74.5811 19.9407 75.0399 19.9407C75.4987 19.9407 75.7415 20.3028 75.7415 21.0826V22.6503H76.3196V21.169C76.3196 20.7205 76.4389 20.3851 76.6714 20.1712C76.8977 19.9613 77.1529 19.9428 77.2249 19.9428C77.5026 19.9428 77.6857 20.0354 77.7989 20.2349C77.9038 20.418 77.9511 20.6937 77.9511 21.1134V22.6524H78.5292V20.8851C78.5292 20.4222 78.412 20.0703 78.1836 19.8399C77.9779 19.6342 77.6857 19.5128 77.3154 19.5128L77.3195 19.5107Z" fill="black"/>
<path d="M81.5049 20.9737L80.54 20.7742C80.0833 20.6816 79.8816 20.5582 79.8816 20.3524C79.8816 20.0706 80.2437 19.9245 80.7704 19.9245C81.2025 19.9245 81.5111 20.0397 81.6098 20.2804H82.2394C82.1962 20.0109 82.0439 19.8154 81.7785 19.6858C81.4782 19.5377 81.0502 19.5068 80.7869 19.5068C80.3795 19.5068 80.0339 19.583 79.7829 19.7249C79.4949 19.8895 79.3035 20.1302 79.3035 20.4429C79.3035 20.8503 79.6018 21.0951 80.1429 21.2124L81.0564 21.4079C81.3712 21.4737 81.6942 21.5642 81.6942 21.8296C81.6942 22.1485 81.3588 22.3049 80.7519 22.3049C80.2499 22.3049 79.9454 22.1609 79.8446 21.8584H79.2109C79.3323 22.562 80.0668 22.7122 80.682 22.7122C81.7765 22.7122 82.3073 22.3974 82.3073 21.7494C82.3073 21.3153 82.0748 21.089 81.5029 20.9717L81.5049 20.9737Z" fill="black"/>
<path d="M55.5569 18.7247C55.2421 18.7247 54.9664 18.7576 54.736 18.9469C54.6372 19.0271 54.5405 19.1547 54.4829 19.3337C54.4294 19.4983 54.415 19.669 54.4089 19.9612H53.7793V20.3788H54.4089V22.6481H54.9973V20.3788H56.0609V19.9612H54.9973C54.9973 19.5312 55.0178 19.3954 55.1433 19.274C55.2277 19.1938 55.3532 19.1382 55.6351 19.1382C55.8038 19.1382 55.9869 19.1568 56.0959 19.1897V18.7659C55.9457 18.7412 55.7688 18.7227 55.5589 18.7227L55.5569 18.7247Z" fill="black"/>
<path d="M40.5012 20.9344C40.386 21.3068 40.2625 21.7224 40.1103 22.2429H40.1082C39.9848 21.8273 39.8511 21.3973 39.7173 20.9632L39.31 19.7144V19.7103H38.413L38.0035 20.9653C37.8657 21.3829 37.734 21.815 37.6126 22.245H37.6106C37.4583 21.7244 37.3349 21.3068 37.2197 20.9365L36.8411 19.7144V19.7082H36.1992L37.1497 22.6441V22.6482H38.0467L38.4706 21.3767C38.5035 21.2677 38.5385 21.1607 38.5714 21.0517C38.6681 20.7451 38.7668 20.4304 38.8615 20.1135H38.8656C38.9643 20.4427 39.0672 20.7739 39.168 21.0928C39.1968 21.1875 39.2277 21.2801 39.2565 21.3747L39.6782 22.642V22.6461H40.5753L41.5258 19.7144V19.7041H40.888L40.5074 20.9303L40.5012 20.9344Z" fill="black"/>
<path d="M47.5951 19.5416C47.0129 19.5868 46.7042 19.9551 46.5088 20.3131V19.5683H45.9883V22.6482H46.5787V21.027C46.5931 20.7287 46.7063 20.4838 46.9141 20.3028C47.1219 20.1197 47.3852 20.0271 47.7 20.0271L47.986 20.0209V19.5416H47.9778C47.8872 19.5333 47.6589 19.5354 47.5951 19.5416Z" fill="black"/>
<path d="M44.7743 19.9327C44.5027 19.6632 44.1098 19.5068 43.6057 19.5068C42.5503 19.5068 41.9434 20.124 41.9434 21.1671C41.9434 21.63 42.0915 22.0148 42.3754 22.2802C42.6614 22.5518 43.0934 22.7122 43.6016 22.7122C43.9884 22.7122 44.3361 22.6155 44.5953 22.4674C44.8443 22.3254 45.05 22.1259 45.1302 21.8605H44.4883C44.332 22.1464 43.9884 22.3008 43.5687 22.3008C43.149 22.3008 42.8219 22.1074 42.647 21.7597C42.577 21.6198 42.5256 21.4469 42.5133 21.2721H45.1817V21.0931C45.1817 20.5931 45.0459 20.2022 44.7743 19.9327ZM42.5256 20.8585C42.5297 20.805 42.5441 20.7413 42.5585 20.6878C42.684 20.194 43.0441 19.9183 43.5913 19.9183C44.297 19.9183 44.5624 20.4121 44.5727 20.8585H42.5256Z" fill="black"/>
<path d="M68.5224 19.9327C68.2508 19.6632 67.8578 19.5068 67.3538 19.5068C66.2983 19.5068 65.6914 20.124 65.6914 21.1671C65.6914 21.63 65.8416 22.0148 66.1235 22.2802C66.4094 22.5518 66.8415 22.7122 67.3497 22.7122C67.7364 22.7122 68.0841 22.6155 68.3434 22.4674C68.5903 22.3254 68.798 22.1259 68.8783 21.8605H68.2364C68.08 22.1464 67.7364 22.3008 67.3167 22.3008C66.897 22.3008 66.5699 22.1074 66.3971 21.7597C66.3271 21.6198 66.2757 21.4469 66.2634 21.2721H68.9318C68.9379 21.1671 68.9338 21.056 68.9194 20.8873C68.8947 20.5993 68.8124 20.2207 68.5244 19.9348L68.5224 19.9327ZM66.2736 20.8585C66.2778 20.805 66.2922 20.7413 66.3066 20.6878C66.4321 20.194 66.7921 19.9183 67.3394 19.9183C68.045 19.9183 68.3104 20.4121 68.3207 20.8585H66.2736Z" fill="black"/>
<path d="M25.6962 19.9327C25.4246 19.6632 25.0317 19.5068 24.5276 19.5068C23.4722 19.5068 22.8652 20.124 22.8652 21.1671C22.8652 21.63 23.0154 22.0148 23.2973 22.2802C23.5833 22.5518 24.0153 22.7122 24.5235 22.7122C24.9103 22.7122 25.258 22.6155 25.5172 22.4674C25.7641 22.3254 25.9719 22.1259 26.0521 21.8605H25.4102C25.2538 22.1464 24.9103 22.3008 24.4906 22.3008C24.0709 22.3008 23.7437 22.1074 23.5709 21.7597C23.501 21.6198 23.4495 21.4469 23.4372 21.2721H26.1056V21.0931C26.1056 20.5931 25.9698 20.2022 25.6982 19.9327H25.6962ZM23.4475 20.8585C23.4516 20.805 23.466 20.7413 23.4804 20.6878C23.6059 20.194 23.9659 19.9183 24.5132 19.9183C25.2189 19.9183 25.4843 20.4121 25.4946 20.8585H23.4475Z" fill="black"/>
</g>
<defs>
<clipPath id="clip0_4404_555">
<rect width="96.8221" height="30.4492" fill="white"/>
</clipPath>
</defs>
</svg>
