<svg width="196" height="22" viewBox="0 0 196 22" fill="none" xmlns="http://www.w3.org/2000/svg">
<path d="M0.73733 4.05646H2.71553V16.645H0.73733V4.05646ZM5.63577 4.05646H8.11751L10.0418 11.5916H10.0777V4.05646H11.8401V16.645H9.80797L7.43413 7.45537H7.39816V16.645H5.63577V4.05646ZM16.2957 5.85483H14.2276V4.05646H20.342V5.85483H18.2739V16.645H16.2957V5.85483ZM22.7385 4.05646H28.1336V5.85483H24.7167V9.1818H27.4322V10.9802H24.7167V14.8467H28.1336V16.645H22.7385V4.05646ZM30.7103 4.05646H32.6885V14.8467H35.9436V16.645H30.7103V4.05646ZM38.3309 4.05646H40.3091V16.645H38.3309V4.05646ZM46.0348 16.8249C45.0756 16.8249 44.3443 16.5551 43.8408 16.0156C43.3372 15.4641 43.0855 14.6788 43.0855 13.6597V7.04175C43.0855 6.02268 43.3372 5.24338 43.8408 4.70388C44.3443 4.15238 45.0756 3.87663 46.0348 3.87663C46.9939 3.87663 47.7252 4.15238 48.2288 4.70388C48.7323 5.24338 48.9841 6.02268 48.9841 7.04175V8.12077H47.1138V6.91586C47.1138 6.08862 46.7721 5.67499 46.0887 5.67499C45.4053 5.67499 45.0637 6.08862 45.0637 6.91586V13.8036C45.0637 14.6189 45.4053 15.0265 46.0887 15.0265C46.7721 15.0265 47.1138 14.6189 47.1138 13.8036V11.3398H46.1247V9.54148H48.9841V13.6597C48.9841 14.6788 48.7323 15.4641 48.2288 16.0156C47.7252 16.5551 46.9939 16.8249 46.0348 16.8249ZM45.837 19.0728H45.1895V17.4183H46.844V18.893L46.0707 20.0439H45.3694L45.837 19.0728ZM51.6929 4.05646H57.088V5.85483H53.6711V9.1818H56.3866V10.9802H53.6711V14.8467H57.088V16.645H51.6929V4.05646ZM59.6647 4.05646H62.1464L64.0707 11.5916H64.1067V4.05646H65.8691V16.645H63.8369L61.4631 7.45537H61.4271V16.645H59.6647V4.05646ZM70.3246 5.85483H68.2565V4.05646H74.371V5.85483H72.3028V16.645H70.3246V5.85483ZM77.4706 4.05646H80.1502L82.2003 16.645H80.2221L79.8624 14.1453V14.1813H77.6145L77.2548 16.645H75.4205L77.4706 4.05646ZM79.6287 12.4728L78.7475 6.25047H78.7115L77.8483 12.4728H79.6287ZM87.1177 16.8249C86.1586 16.8249 85.4332 16.5551 84.9417 16.0156C84.4501 15.4641 84.2044 14.6788 84.2044 13.6597V12.9404H86.0747V13.8036C86.0747 14.6189 86.4164 15.0265 87.0997 15.0265C87.4354 15.0265 87.6872 14.9306 87.855 14.7388C88.0349 14.5349 88.1248 14.2112 88.1248 13.7676C88.1248 13.2401 88.0049 12.7785 87.7651 12.3829C87.5253 11.9753 87.0817 11.4897 86.4343 10.9262C85.6191 10.2069 85.0496 9.55946 84.7259 8.98398C84.4022 8.39652 84.2403 7.73712 84.2403 7.00578C84.2403 6.01069 84.4921 5.24338 84.9956 4.70388C85.4992 4.15238 86.2305 3.87663 87.1896 3.87663C88.1368 3.87663 88.8501 4.15238 89.3297 4.70388C89.8213 5.24338 90.067 6.02268 90.067 7.04175V7.56328H88.1967V6.91586C88.1967 6.48426 88.1128 6.17254 87.945 5.98071C87.7771 5.7769 87.5313 5.67499 87.2076 5.67499C86.5482 5.67499 86.2185 6.07663 86.2185 6.8799C86.2185 7.33548 86.3384 7.7611 86.5782 8.15674C86.83 8.55238 87.2796 9.03194 87.927 9.59543C88.7542 10.3148 89.3237 10.9682 89.6354 11.5556C89.9471 12.1431 90.103 12.8325 90.103 13.6238C90.103 14.6548 89.8452 15.4461 89.3297 15.9976C88.8262 16.5491 88.0888 16.8249 87.1177 16.8249ZM96.9948 4.05646H100.016C100.999 4.05646 101.737 4.32022 102.228 4.84774C102.72 5.37526 102.965 6.14856 102.965 7.16764V13.5338C102.965 14.5529 102.72 15.3262 102.228 15.8537C101.737 16.3813 100.999 16.645 100.016 16.645H96.9948V4.05646ZM99.9801 14.8467C100.304 14.8467 100.55 14.7507 100.717 14.5589C100.897 14.3671 100.987 14.0554 100.987 13.6238V7.07772C100.987 6.64611 100.897 6.33439 100.717 6.14257C100.55 5.95074 100.304 5.85483 99.9801 5.85483H98.973V14.8467H99.9801ZM105.344 14.8826L109.012 5.85483H105.524V4.05646H111.134V5.81886L107.466 14.8467H111.134V16.645H105.344V14.8826ZM113.694 4.05646H115.672V16.645H113.694V4.05646ZM112.615 1.64665H116.751V3.04938H112.615V1.64665ZM118.071 4.05646H120.067L121.362 13.8216H121.398L122.692 4.05646H124.509L122.602 16.645H119.977L118.071 4.05646ZM126.898 4.05646H132.293V5.85483H128.876V9.1818H131.591V10.9802H128.876V14.8467H132.293V16.645H126.898V4.05646ZM137.476 16.8249C136.517 16.8249 135.792 16.5551 135.3 16.0156C134.809 15.4641 134.563 14.6788 134.563 13.6597V12.9404H136.433V13.8036C136.433 14.6189 136.775 15.0265 137.458 15.0265C137.794 15.0265 138.046 14.9306 138.213 14.7388C138.393 14.5349 138.483 14.2112 138.483 13.7676C138.483 13.2401 138.363 12.7785 138.124 12.3829C137.884 11.9753 137.44 11.4897 136.793 10.9262C135.978 10.2069 135.408 9.55946 135.084 8.98398C134.761 8.39652 134.599 7.73712 134.599 7.00578C134.599 6.01069 134.851 5.24338 135.354 4.70388C135.858 4.15238 136.589 3.87663 137.548 3.87663C138.495 3.87663 139.209 4.15238 139.688 4.70388C140.18 5.24338 140.425 6.02268 140.425 7.04175V7.56328H138.555V6.91586C138.555 6.48426 138.471 6.17254 138.303 5.98071C138.136 5.7769 137.89 5.67499 137.566 5.67499C136.907 5.67499 136.577 6.07663 136.577 6.8799C136.577 7.33548 136.697 7.7611 136.937 8.15674C137.188 8.55238 137.638 9.03194 138.285 9.59543C139.113 10.3148 139.682 10.9682 139.994 11.5556C140.306 12.1431 140.461 12.8325 140.461 13.6238C140.461 14.6548 140.204 15.4461 139.688 15.9976C139.185 16.5491 138.447 16.8249 137.476 16.8249ZM147.353 4.05646H150.267C151.25 4.05646 151.987 4.32022 152.479 4.84774C152.97 5.37526 153.216 6.14856 153.216 7.16764V8.40851C153.216 9.42758 152.97 10.2009 152.479 10.7284C151.987 11.2559 151.25 11.5197 150.267 11.5197H149.331V16.645H147.353V4.05646ZM150.267 9.72131C150.59 9.72131 150.83 9.6314 150.986 9.45156C151.154 9.27172 151.238 8.966 151.238 8.53439V7.04175C151.238 6.61014 151.154 6.30442 150.986 6.12458C150.83 5.94475 150.59 5.85483 150.267 5.85483H149.331V9.72131H150.267ZM156.625 4.05646H159.305L161.355 16.645H159.377L159.017 14.1453V14.1813H156.769L156.41 16.645H154.575L156.625 4.05646ZM158.783 12.4728L157.902 6.25047H157.866L157.003 12.4728H158.783ZM163.428 14.8826L167.097 5.85483H163.608V4.05646H169.219V5.81886L165.55 14.8467H169.219V16.645H163.428V14.8826ZM171.778 4.05646H173.756V16.645H171.778V4.05646ZM170.699 1.64665H174.835V3.04938H170.699V1.64665ZM176.676 4.05646H179.5L180.759 13.0663H180.795L182.054 4.05646H184.877V16.645H183.007V7.11368H182.971L181.532 16.645H179.878L178.439 7.11368H178.403V16.645H176.676V4.05646ZM187.792 4.05646H193.187V5.85483H189.77V9.1818H192.486V10.9802H189.77V14.8467H193.187V16.645H187.792V4.05646Z" fill="white"/>
</svg>
