<svg width="196" height="43" viewBox="0 0 196 43" fill="none" xmlns="http://www.w3.org/2000/svg">
<g clip-path="url(#clip0_4404_545)">
<path d="M51.0854 40.0589L59.9843 7.09971C59.9843 7.09971 48.7729 6.98193 47.4593 7.09971C45.6451 7.26505 40.7007 8.25482 37.5706 13.0338L29.3308 25.8895L28.0126 12.044C28.0126 12.044 26.0353 7.42812 23.0683 7.42812H8.89663L0 40.0589H11.2069L17.1387 19.2941L21.4239 40.2039L30.3228 40.1971L45.1536 19.2941L40.2115 40.1088L51.0877 40.0589H51.0854Z" fill="white"/>
<path d="M63.2827 17.2017L56.6895 40.1024H69.2145L74.9833 17.1519L63.2827 17.2017Z" fill="white"/>
<path d="M80.7527 17.2017L74.5332 40.1024H86.6845L92.4533 17.1519L80.7527 17.2017Z" fill="white"/>
<path d="M81.9062 11.7143H94.429C94.429 11.7143 96.0779 2.32165 101.188 0.344367C101.188 0.344367 85.0364 -1.14143 81.9062 11.7143Z" fill="white"/>
<path d="M64.3262 11.7143H76.8512C76.8512 11.7143 78.4978 2.32165 83.6075 0.344367C83.6075 0.344367 67.4563 -1.14143 64.3262 11.7143Z" fill="white"/>
<path d="M97.9129 17.2065L92.1895 40.0597H103.713L108.327 23.1407C108.327 23.1407 114.261 23.1407 113.163 27.5346L109.428 40.0597L121.296 40.0868L125.251 23.7975C125.251 23.7975 131.842 23.3581 130.557 27.6547L127.228 40.1185H138.654L141.95 27.7543C141.95 27.7543 144.806 17.4262 136.677 17.4262L97.9175 17.2065H97.9129Z" fill="white"/>
<path d="M169.886 35.2259C162.335 35.4388 156.829 34.2678 158.082 29.0562C159.783 21.505 169.993 22.4608 171.803 22.4608C182.119 22.4608 182.756 25.1198 182.756 27.1401C182.756 35.7559 173.288 35.2236 169.886 35.2236M173.37 15.6682C169.635 15.6682 148.539 13.691 145.024 29.294C142.436 40.0592 153.812 42.4782 169.413 42.0388C176.446 42.0388 196.001 43.1373 196.001 25.3372C196.001 21.163 194.683 15.6682 173.368 15.6682" fill="white"/>
</g>
<defs>
<clipPath id="clip0_4404_545">
<rect width="196" height="41.7947" fill="white" transform="translate(0 0.291992)"/>
</clipPath>
</defs>
</svg>
