<svg width="286" height="88" viewBox="0 0 286 88" fill="none" xmlns="http://www.w3.org/2000/svg">
<path d="M1.32275 2.94575H6.67828C8.50647 2.94575 9.83997 3.37591 10.6788 4.23624C11.5176 5.07506 11.937 6.3763 11.937 8.13997V9.04331C11.937 10.2047 11.7434 11.1511 11.3563 11.8824C10.9907 12.6137 10.4207 13.1406 9.6464 13.4632V13.5278C11.4101 14.13 12.2919 15.7001 12.2919 18.238V20.1738C12.2919 21.9159 11.8295 23.2494 10.9046 24.1743C10.0013 25.0776 8.66778 25.5293 6.90411 25.5293H1.32275V2.94575ZM6.25887 12.1405C6.96864 12.1405 7.49559 11.9577 7.83972 11.592C8.20536 11.2264 8.38817 10.6134 8.38817 9.75308V8.49485C8.38817 7.67754 8.23762 7.08607 7.9365 6.72043C7.6569 6.35479 7.20523 6.17197 6.58149 6.17197H4.87159V12.1405H6.25887ZM6.90411 22.3031C7.52785 22.3031 7.99027 22.1418 8.29139 21.8191C8.5925 21.475 8.74306 20.8943 8.74306 20.077V18.109C8.74306 17.0766 8.56024 16.3668 8.1946 15.9797C7.85047 15.571 7.26975 15.3667 6.45244 15.3667H4.87159V22.3031H6.90411ZM15.0115 2.94575H24.6902V6.17197H18.5603V12.1405H23.4319V15.3667H18.5603V22.3031H24.6902V25.5293H15.0115V2.94575ZM26.7302 22.3676L33.3117 6.17197H27.0529V2.94575H37.1187V6.10745L30.5372 22.3031H37.1187V25.5293H26.7302V22.3676ZM38.8384 2.94575H42.4195L44.7424 20.4641H44.8069L47.1298 2.94575H50.3883L46.9685 25.5293H42.2582L38.8384 2.94575ZM54.5667 2.94575H59.3738L63.0517 25.5293H59.5029L58.8576 21.0448V21.1094H54.8248L54.1796 25.5293H50.8888L54.5667 2.94575ZM58.4382 18.0445L56.8574 6.88174H56.7928L55.2442 18.0445H58.4382ZM65.4187 2.94575H70.8387C72.6024 2.94575 73.9252 3.41893 74.807 4.36529C75.6888 5.31165 76.1297 6.69892 76.1297 8.52711V19.9479C76.1297 21.7761 75.6888 23.1634 74.807 24.1098C73.9252 25.0561 72.6024 25.5293 70.8387 25.5293H65.4187V2.94575ZM70.7742 22.3031C71.3549 22.3031 71.7958 22.131 72.097 21.7869C72.4196 21.4428 72.5809 20.8835 72.5809 20.1092V8.3658C72.5809 7.59151 72.4196 7.0323 72.097 6.68817C71.7958 6.34404 71.3549 6.17197 70.7742 6.17197H68.9675V22.3031H70.7742ZM84.3324 25.8519C82.6118 25.8519 81.2998 25.368 80.3964 24.4001C79.4931 23.4107 79.0414 22.002 79.0414 20.1738V2.94575H82.5902V20.4319C82.5902 21.2062 82.7408 21.7654 83.0419 22.1095C83.3645 22.4536 83.8162 22.6257 84.3969 22.6257C84.9776 22.6257 85.4186 22.4536 85.7197 22.1095C86.0423 21.7654 86.2036 21.2062 86.2036 20.4319V2.94575H89.6234V20.1738C89.6234 22.002 89.1717 23.4107 88.2684 24.4001C87.3651 25.368 86.0531 25.8519 84.3324 25.8519ZM1.32275 33.9458H6.58149C8.40968 33.9458 9.74319 34.3759 10.582 35.2362C11.4208 36.0751 11.8402 37.3763 11.8402 39.14V40.5272C11.8402 42.8716 11.0659 44.3557 9.51735 44.9794V45.044C10.3777 45.302 10.9799 45.829 11.324 46.6248C11.6897 47.4206 11.8725 48.4853 11.8725 49.8188V53.787C11.8725 54.4323 11.894 54.9592 11.937 55.3679C11.98 55.755 12.0876 56.1422 12.2596 56.5293H8.64627C8.51722 56.1637 8.43119 55.8195 8.38817 55.4969C8.34516 55.1743 8.32365 54.5936 8.32365 53.7547V49.6252C8.32365 48.5928 8.15158 47.8723 7.80745 47.4636C7.48483 47.055 6.91487 46.8506 6.09756 46.8506H4.87159V56.5293H1.32275V33.9458ZM6.16208 43.6244C6.87185 43.6244 7.3988 43.4416 7.74293 43.076C8.10857 42.7103 8.29139 42.0973 8.29139 41.237V39.4949C8.29139 38.6775 8.14083 38.0861 7.83972 37.7204C7.56011 37.3548 7.10844 37.172 6.4847 37.172H4.87159V43.6244H6.16208ZM14.98 33.9458H18.5288V56.5293H14.98V33.9458ZM26.4454 56.8519C24.7248 56.8519 23.4235 56.368 22.5417 55.4001C21.6599 54.4107 21.219 53.002 21.219 51.1738V49.8833H24.5742V51.4319C24.5742 52.8944 25.1872 53.6257 26.4132 53.6257C27.0154 53.6257 27.4671 53.4536 27.7682 53.1095C28.0908 52.7439 28.2521 52.1631 28.2521 51.3673C28.2521 50.421 28.037 49.5929 27.6069 48.8832C27.1767 48.1519 26.3809 47.2808 25.2195 46.2699C23.7569 44.9794 22.7353 43.818 22.1546 42.7856C21.5738 41.7317 21.2835 40.5487 21.2835 39.2368C21.2835 37.4516 21.7351 36.0751 22.6385 35.1072C23.5418 34.1178 24.8538 33.6231 26.5745 33.6231C28.2736 33.6231 29.5534 34.1178 30.4137 35.1072C31.2955 36.0751 31.7364 37.4731 31.7364 39.3013V40.2369H28.3812V39.0754C28.3812 38.3011 28.2306 37.7419 27.9295 37.3978C27.6284 37.0322 27.1875 36.8494 26.6067 36.8494C25.4238 36.8494 24.8323 37.5699 24.8323 39.0109C24.8323 39.8282 25.0474 40.5918 25.4776 41.3015C25.9292 42.0113 26.7358 42.8716 27.8972 43.8825C29.3813 45.173 30.4029 46.3452 30.9621 47.3991C31.5214 48.453 31.801 49.6897 31.801 51.1092C31.801 52.9589 31.3385 54.3785 30.4137 55.3679C29.5103 56.3572 28.1876 56.8519 26.4454 56.8519ZM34.481 33.9458H38.0298V56.5293H34.481V33.9458ZM41.3329 33.9458H45.7851L49.2372 47.4636H49.3017V33.9458H52.4634V56.5293H48.8178L44.5591 40.0433H44.4946V56.5293H41.3329V33.9458ZM58.4886 33.9458H63.2957L66.9736 56.5293H63.4247L62.7795 52.0448V52.1094H58.7467L58.1015 56.5293H54.8107L58.4886 33.9458ZM62.3601 49.0445L60.7792 37.8817H60.7147L59.1661 49.0445H62.3601ZM57.1981 29.6226H64.6184V32.1391H57.1981V29.6226ZM70.1794 56.6583C69.5341 56.6583 68.9857 56.6153 68.534 56.5293V53.3031C68.8781 53.3891 69.2653 53.4321 69.6954 53.4321C70.4052 53.4321 70.9322 53.2601 71.2763 52.9159C71.6204 52.5503 71.7925 52.0018 71.7925 51.2706V33.9458H75.3413V51.1738C75.3413 53.0235 74.9112 54.4 74.0508 55.3033C73.212 56.2067 71.9215 56.6583 70.1794 56.6583ZM83.6859 56.8519C81.9652 56.8519 80.6533 56.368 79.7499 55.4001C78.8466 54.4107 78.3949 53.002 78.3949 51.1738V33.9458H81.9437V51.4319C81.9437 52.2062 82.0943 52.7654 82.3954 53.1095C82.718 53.4536 83.1697 53.6257 83.7504 53.6257C84.3311 53.6257 84.7721 53.4536 85.0732 53.1095C85.3958 52.7654 85.5571 52.2062 85.5571 51.4319V33.9458H88.9769V51.1738C88.9769 53.002 88.5252 54.4107 87.6219 55.4001C86.7185 56.368 85.4065 56.8519 83.6859 56.8519ZM92.1497 33.9458H97.2149L99.4732 50.1091H99.5377L101.796 33.9458H106.861V56.5293H103.506V39.4303H103.441L100.86 56.5293H97.8924L95.3114 39.4303H95.2469V56.5293H92.1497V33.9458ZM115.317 56.8519C113.596 56.8519 112.284 56.368 111.381 55.4001C110.477 54.4107 110.026 53.002 110.026 51.1738V33.9458H113.575V51.4319C113.575 52.2062 113.725 52.7654 114.026 53.1095C114.349 53.4536 114.801 53.6257 115.381 53.6257C115.962 53.6257 116.403 53.4536 116.704 53.1095C117.027 52.7654 117.188 52.2062 117.188 51.4319V33.9458H120.608V51.1738C120.608 53.002 120.156 54.4107 119.253 55.4001C118.349 56.368 117.037 56.8519 115.317 56.8519ZM129.593 33.9458H134.948C136.776 33.9458 138.11 34.3759 138.949 35.2362C139.788 36.0751 140.207 37.3763 140.207 39.14V40.0433C140.207 41.2047 140.013 42.1511 139.626 42.8824C139.261 43.6137 138.691 44.1406 137.916 44.4632V44.5278C139.68 45.13 140.562 46.7001 140.562 49.238V51.1738C140.562 52.9159 140.099 54.2494 139.175 55.1743C138.271 56.0776 136.938 56.5293 135.174 56.5293H129.593V33.9458ZM134.529 43.1405C135.239 43.1405 135.766 42.9577 136.11 42.592C136.475 42.2264 136.658 41.6134 136.658 40.7531V39.4949C136.658 38.6775 136.508 38.0861 136.207 37.7204C135.927 37.3548 135.475 37.172 134.851 37.172H133.142V43.1405H134.529ZM135.174 53.3031C135.798 53.3031 136.26 53.1418 136.561 52.8191C136.863 52.475 137.013 51.8943 137.013 51.077V49.109C137.013 48.0766 136.83 47.3668 136.465 46.9797C136.12 46.571 135.54 46.3667 134.722 46.3667H133.142V53.3031H135.174ZM143.282 33.9458H148.54C150.368 33.9458 151.702 34.3759 152.541 35.2362C153.38 36.0751 153.799 37.3763 153.799 39.14V40.5272C153.799 42.8716 153.025 44.3557 151.476 44.9794V45.044C152.336 45.302 152.939 45.829 153.283 46.6248C153.648 47.4206 153.831 48.4853 153.831 49.8188V53.787C153.831 54.4323 153.853 54.9592 153.896 55.3679C153.939 55.755 154.046 56.1422 154.218 56.5293H150.605C150.476 56.1637 150.39 55.8195 150.347 55.4969C150.304 55.1743 150.282 54.5936 150.282 53.7547V49.6252C150.282 48.5928 150.11 47.8723 149.766 47.4636C149.444 47.055 148.874 46.8506 148.056 46.8506H146.83V56.5293H143.282V33.9458ZM148.121 43.6244C148.831 43.6244 149.358 43.4416 149.702 43.076C150.067 42.7103 150.25 42.0973 150.25 41.237V39.4949C150.25 38.6775 150.1 38.0861 149.798 37.7204C149.519 37.3548 149.067 37.172 148.443 37.172H146.83V43.6244H148.121ZM156.939 33.9458H160.488V56.5293H156.939V33.9458ZM155.003 29.6226H162.423V32.1391H155.003V29.6226ZM162.855 33.9458H166.436L168.759 51.4641H168.824L171.146 33.9458H174.405L170.985 56.5293H166.275L162.855 33.9458ZM176.755 33.9458H180.304V56.5293H176.755V33.9458ZM174.819 29.6226H182.239V32.1391H174.819V29.6226ZM183.607 33.9458H188.962C190.79 33.9458 192.124 34.3759 192.963 35.2362C193.802 36.0751 194.221 37.3763 194.221 39.14V40.0433C194.221 41.2047 194.027 42.1511 193.64 42.8824C193.275 43.6137 192.705 44.1406 191.93 44.4632V44.5278C193.694 45.13 194.576 46.7001 194.576 49.238V51.1738C194.576 52.9159 194.113 54.2494 193.189 55.1743C192.285 56.0776 190.952 56.5293 189.188 56.5293H183.607V33.9458ZM188.543 43.1405C189.253 43.1405 189.78 42.9577 190.124 42.592C190.489 42.2264 190.672 41.6134 190.672 40.7531V39.4949C190.672 38.6775 190.522 38.0861 190.22 37.7204C189.941 37.3548 189.489 37.172 188.865 37.172H187.156V43.1405H188.543ZM189.188 53.3031C189.812 53.3031 190.274 53.1418 190.575 52.8191C190.876 52.475 191.027 51.8943 191.027 51.077V49.109C191.027 48.0766 190.844 47.3668 190.479 46.9797C190.134 46.571 189.554 46.3667 188.736 46.3667H187.156V53.3031H189.188ZM202.457 56.8519C200.737 56.8519 199.425 56.368 198.521 55.4001C197.618 54.4107 197.166 53.002 197.166 51.1738V33.9458H200.715V51.4319C200.715 52.2062 200.866 52.7654 201.167 53.1095C201.49 53.4536 201.941 53.6257 202.522 53.6257C203.103 53.6257 203.544 53.4536 203.845 53.1095C204.167 52.7654 204.329 52.2062 204.329 51.4319V33.9458H207.748V51.1738C207.748 53.002 207.297 54.4107 206.393 55.4001C205.49 56.368 204.178 56.8519 202.457 56.8519Z" fill="white"/>
</svg>
