<svg width="122" height="93" viewBox="0 0 122 93" fill="none" xmlns="http://www.w3.org/2000/svg">
<g clip-path="url(#clip0_4404_1086)">
<path d="M5.34166 83.6919H8.60841L3.26387 92.8919H0L5.34166 83.6919Z" fill="white"/>
<path d="M11.2792 83.6919H14.5459L9.20137 92.8919H5.9375L11.2792 83.6919Z" fill="white"/>
<path d="M17.2147 83.6919H20.4815L15.1369 92.8919H11.873L17.2147 83.6919Z" fill="white"/>
<path d="M23.1503 83.6919H26.417L21.0725 92.8919H17.8086L23.1503 83.6919Z" fill="white"/>
<path d="M29.0858 83.6919H32.3497L27.008 92.8919H23.7441L29.0858 83.6919Z" fill="white"/>
<path d="M35.0233 83.6919H38.2872L32.9455 92.8919H29.6816L35.0233 83.6919Z" fill="white"/>
<path d="M40.9588 83.6919H44.2227L38.8811 92.8919H35.6172L40.9588 83.6919Z" fill="white"/>
<path d="M46.8944 83.6919H50.1583L44.8166 92.8919H41.5527L46.8944 83.6919Z" fill="white"/>
<path d="M52.8299 83.6919H56.0938L50.7521 92.8919H47.4883L52.8299 83.6919Z" fill="white"/>
<path d="M58.7674 83.6919H62.0313L56.6896 92.8919H53.4258L58.7674 83.6919Z" fill="white"/>
<path d="M64.701 83.6919H67.9649L62.6232 92.8919H59.3594L64.701 83.6919Z" fill="white"/>
<path d="M70.6385 83.6919H73.9024L68.5607 92.8919H65.2969L70.6385 83.6919Z" fill="white"/>
<path d="M76.5741 83.6919H79.838L74.4963 92.8919H71.2324L76.5741 83.6919Z" fill="white"/>
<path d="M82.5135 83.6919H85.7774L80.4357 92.8919H77.1719L82.5135 83.6919Z" fill="white"/>
<path d="M88.4471 83.6919H91.711L86.3693 92.8919H83.1055L88.4471 83.6919Z" fill="white"/>
<path d="M94.3846 83.6919H97.6485L92.3068 92.8919H89.043L94.3846 83.6919Z" fill="white"/>
<path d="M100.32 83.6919H103.584L98.2424 92.8919H94.9785L100.32 83.6919Z" fill="white"/>
<path d="M106.257 83.6919H109.521L104.179 92.8919H100.912L106.257 83.6919Z" fill="white"/>
<path d="M112.19 83.6919H115.454L110.112 92.8919H106.846L112.19 83.6919Z" fill="white"/>
<path d="M118.132 83.6919H121.396L116.054 92.8919H112.787L118.132 83.6919Z" fill="white"/>
</g>
<path d="M1.2619 3.32618H2.93921V14H1.2619V3.32618ZM4.16492 12.5057L7.27557 4.85101H4.3174V3.32618H9.07487V4.82052L5.96422 12.4752H9.07487V14H4.16492V12.5057ZM10.3299 3.32618H12.8611C13.7252 3.32618 14.3554 3.52949 14.7519 3.93612C15.1483 4.33257 15.3466 4.94759 15.3466 5.78116V6.20811C15.3466 6.75705 15.2551 7.20434 15.0721 7.54997C14.8993 7.89559 14.6299 8.14465 14.2639 8.29713V8.32763C15.0975 8.61226 15.5143 9.35435 15.5143 10.5539V11.4688C15.5143 12.2922 15.2957 12.9225 14.8586 13.3596C14.4317 13.7865 13.8014 14 12.9678 14H10.3299V3.32618ZM12.6629 7.67195C12.9983 7.67195 13.2474 7.58554 13.41 7.41273C13.5829 7.23992 13.6693 6.9502 13.6693 6.54358V5.94889C13.6693 5.5626 13.5981 5.28305 13.4558 5.11024C13.3236 4.93742 13.1102 4.85101 12.8154 4.85101H12.0072V7.67195H12.6629ZM12.9678 12.4752C13.2626 12.4752 13.4812 12.3989 13.6235 12.2464C13.7658 12.0838 13.837 11.8093 13.837 11.423V10.4929C13.837 10.0049 13.7506 9.66948 13.5778 9.4865C13.4151 9.29336 13.1406 9.19678 12.7544 9.19678H12.0072V12.4752H12.9678ZM18.0958 3.32618H20.3678L22.1061 14H20.4288L20.1238 11.8805V11.911H18.2178L17.9128 14H16.3575L18.0958 3.32618ZM19.9256 10.4624L19.1784 5.18648H19.1479L18.416 10.4624H19.9256ZM25.6348 14.1525C24.8215 14.1525 24.2014 13.9238 23.7745 13.4663C23.3475 12.9987 23.134 12.3329 23.134 11.4688V3.32618H24.8114V11.5908C24.8114 11.9567 24.8825 12.221 25.0248 12.3837C25.1773 12.5463 25.3908 12.6277 25.6653 12.6277C25.9397 12.6277 26.1481 12.5463 26.2904 12.3837C26.4429 12.221 26.5192 11.9567 26.5192 11.5908V3.32618H28.1355V11.4688C28.1355 12.3329 27.922 12.9987 27.4951 13.4663C27.0681 13.9238 26.448 14.1525 25.6348 14.1525ZM29.6351 3.32618H32.1968C33.0304 3.32618 33.6555 3.54983 34.0723 3.99711C34.4891 4.44439 34.6975 5.10007 34.6975 5.96414V11.362C34.6975 12.2261 34.4891 12.8818 34.0723 13.3291C33.6555 13.7764 33.0304 14 32.1968 14H29.6351V3.32618ZM32.1663 12.4752C32.4408 12.4752 32.6492 12.3938 32.7915 12.2312C32.944 12.0685 33.0202 11.8042 33.0202 11.4383V5.8879C33.0202 5.52194 32.944 5.25764 32.7915 5.09499C32.6492 4.93234 32.4408 4.85101 32.1663 4.85101H31.3124V12.4752H32.1663ZM36.1347 3.32618H37.812V14H36.1347V3.32618ZM39.3731 3.32618H43.9476V4.85101H41.0505V7.67195H43.3529V9.19678H41.0505V12.4752H43.9476V14H39.3731V3.32618ZM46.5289 4.85101H44.7753V3.32618H49.9598V4.85101H48.2062V14H46.5289V4.85101Z" fill="white"/>
<defs>
<clipPath id="clip0_4404_1086">
<rect width="121.392" height="9.20001" fill="white" transform="translate(0 83.6919)"/>
</clipPath>
</defs>
</svg>
