<svg width="147" height="40" viewBox="0 0 147 40" fill="none" xmlns="http://www.w3.org/2000/svg">
<path d="M0.775396 2.76154H3.38526L5.40886 10.6857H5.44668V2.76154H7.30007V16H5.163L2.6666 6.33592H2.62878V16H0.775396V2.76154ZM12.7989 16.1891C11.7776 16.1891 10.996 15.8991 10.4538 15.3192C9.91166 14.7392 9.64058 13.9197 9.64058 12.8606V5.90095C9.64058 4.84187 9.91166 4.02234 10.4538 3.44237C10.996 2.8624 11.7776 2.57242 12.7989 2.57242C13.8202 2.57242 14.6019 2.8624 15.144 3.44237C15.6861 4.02234 15.9572 4.84187 15.9572 5.90095V12.8606C15.9572 13.9197 15.6861 14.7392 15.144 15.3192C14.6019 15.8991 13.8202 16.1891 12.7989 16.1891ZM12.7989 14.2979C13.5176 14.2979 13.8769 13.8629 13.8769 12.993V5.76856C13.8769 4.8986 13.5176 4.46363 12.7989 4.46363C12.0802 4.46363 11.7209 4.8986 11.7209 5.76856V12.993C11.7209 13.8629 12.0802 14.2979 12.7989 14.2979ZM17.7243 2.76154H19.8236L21.1852 13.0308H21.2231L22.5847 2.76154H24.4948L22.4902 16H19.729L17.7243 2.76154ZM26.4397 2.76154H32.1133V4.65275H28.52V8.15148H31.3757V10.0427H28.52V14.1088H32.1133V16H26.4397V2.76154ZM27.1016 0.227319H31.4514V1.70246H27.1016V0.227319ZM34.2557 2.76154H37.3384C38.4101 2.76154 39.1918 3.0137 39.6835 3.51802C40.1752 4.00974 40.421 4.77252 40.421 5.80638V6.6196C40.421 7.99388 39.9672 8.86384 39.0594 9.22947V9.2673C39.5637 9.41859 39.9167 9.72749 40.1184 10.194C40.3328 10.6605 40.44 11.2846 40.44 12.0663V14.3925C40.44 14.7707 40.4526 15.0796 40.4778 15.3192C40.503 15.5461 40.566 15.7731 40.6669 16H38.5487C38.4731 15.7857 38.4227 15.5839 38.3974 15.3948C38.3722 15.2057 38.3596 14.8653 38.3596 14.3736V11.9528C38.3596 11.3476 38.2588 10.9253 38.057 10.6857C37.8679 10.4462 37.5338 10.3264 37.0547 10.3264H36.336V16H34.2557V2.76154ZM37.0925 8.43517C37.5086 8.43517 37.8175 8.328 38.0192 8.11366C38.2335 7.89932 38.3407 7.53999 38.3407 7.03567V6.01442C38.3407 5.53531 38.2525 5.18859 38.0759 4.97425C37.912 4.75992 37.6473 4.65275 37.2816 4.65275H36.336V8.43517H37.0925ZM44.4184 4.65275H42.2435V2.76154H48.6737V4.65275H46.4988V16H44.4184V4.65275ZM50.6265 2.76154H56.3001V4.65275H52.7068V8.15148H55.5625V10.0427H52.7068V14.1088H56.3001V16H50.6265V2.76154ZM51.2884 0.227319H55.6382V1.70246H51.2884V0.227319ZM62.9087 16.0756C62.5305 16.0756 62.2089 16.0504 61.9442 16V14.1088C62.1459 14.1592 62.3728 14.1844 62.625 14.1844C63.0411 14.1844 63.35 14.0836 63.5517 13.8818C63.7534 13.6675 63.8543 13.346 63.8543 12.9173V2.76154H65.9346V12.8606C65.9346 13.9449 65.6825 14.7518 65.1781 15.2813C64.6864 15.8109 63.9299 16.0756 62.9087 16.0756ZM69.9752 2.76154H72.7931L74.949 16H72.8687L72.4905 13.3712V13.409H70.1265L69.7482 16H67.8192L69.9752 2.76154ZM72.2446 11.6124L71.3179 5.06881H71.2801L70.3723 11.6124H72.2446ZM79.8929 16.1891C78.8843 16.1891 78.1152 15.9054 77.5857 15.3381C77.0561 14.7581 76.7913 13.9323 76.7913 12.8606V2.76154H78.8717V13.0119C78.8717 13.4658 78.9599 13.7936 79.1364 13.9953C79.3256 14.197 79.5903 14.2979 79.9308 14.2979C80.2712 14.2979 80.5296 14.197 80.7061 13.9953C80.8953 13.7936 80.9898 13.4658 80.9898 13.0119V2.76154H82.9945V12.8606C82.9945 13.9323 82.7297 14.7581 82.2002 15.3381C81.6707 15.9054 80.9016 16.1891 79.8929 16.1891ZM85.4218 2.76154H88.0316L90.0552 10.6857H90.093V2.76154H91.9464V16H89.8094L87.313 6.33592H87.2751V16H85.4218V2.76154ZM96.0458 2.76154H98.8637L101.02 16H98.9393L98.5611 13.3712V13.409H96.1971L95.8188 16H93.8898L96.0458 2.76154ZM98.3152 11.6124L97.3885 5.06881H97.3507L96.4429 11.6124H98.3152ZM95.2893 0.227319H99.6391V1.70246H95.2893V0.227319ZM105.624 16.1891C104.615 16.1891 103.852 15.9054 103.335 15.3381C102.818 14.7581 102.56 13.9323 102.56 12.8606V12.1041H104.527V13.0119C104.527 13.8692 104.886 14.2979 105.605 14.2979C105.958 14.2979 106.222 14.197 106.399 13.9953C106.588 13.781 106.683 13.4406 106.683 12.9741C106.683 12.4193 106.557 11.9339 106.304 11.5178C106.052 11.0892 105.586 10.5785 104.905 9.98596C104.048 9.22947 103.449 8.54864 103.108 7.94345C102.768 7.32566 102.598 6.63221 102.598 5.86312C102.598 4.81665 102.862 4.00974 103.392 3.44237C103.921 2.8624 104.691 2.57242 105.699 2.57242C106.695 2.57242 107.445 2.8624 107.95 3.44237C108.467 4.00974 108.725 4.82926 108.725 5.90095V6.4494H106.758V5.76856C106.758 5.31467 106.67 4.98686 106.494 4.78513C106.317 4.5708 106.059 4.46363 105.718 4.46363C105.025 4.46363 104.678 4.886 104.678 5.73074C104.678 6.20984 104.804 6.65743 105.056 7.07349C105.321 7.48956 105.794 7.99388 106.475 8.58646C107.345 9.34295 107.943 10.0301 108.271 10.6479C108.599 11.2657 108.763 11.9906 108.763 12.8228C108.763 13.9071 108.492 14.7392 107.95 15.3192C107.42 15.8991 106.645 16.1891 105.624 16.1891ZM0.775396 22.7615H3.83915C4.87301 22.7615 5.64841 23.0389 6.16534 23.5937C6.68227 24.1484 6.94074 24.9616 6.94074 26.0333V27.3383C6.94074 28.4099 6.68227 29.2232 6.16534 29.7779C5.64841 30.3327 4.87301 30.6101 3.83915 30.6101H2.85573V36H0.775396V22.7615ZM3.83915 28.7188C4.17957 28.7188 4.43173 28.6243 4.59564 28.4352C4.77215 28.246 4.86041 27.9245 4.86041 27.4706V25.9009C4.86041 25.4471 4.77215 25.1255 4.59564 24.9364C4.43173 24.7473 4.17957 24.6527 3.83915 24.6527H2.85573V28.7188H3.83915ZM9.95884 22.7615H12.7767L14.9327 36H12.8524L12.4741 33.3712V33.409H10.1101L9.73189 36H7.80286L9.95884 22.7615ZM12.2283 31.6124L11.3016 25.0688H11.2638L10.356 31.6124H12.2283ZM18.5875 22.7615H21.4054L23.5614 36H21.481L21.1028 33.3712V33.409H18.7388L18.3605 36H16.4315L18.5875 22.7615ZM20.8569 31.6124L19.9302 25.0688H19.8924L18.9846 31.6124H20.8569ZM28.5052 36.1891C27.4966 36.1891 26.7275 35.9054 26.198 35.3381C25.6684 34.7581 25.4037 33.9323 25.4037 32.8606V22.7615H27.484V33.0119C27.484 33.4658 27.5722 33.7936 27.7488 33.9953C27.9379 34.197 28.2026 34.2979 28.5431 34.2979C28.8835 34.2979 29.1419 34.197 29.3185 33.9953C29.5076 33.7936 29.6021 33.4658 29.6021 33.0119V22.7615H31.6068V32.8606C31.6068 33.9323 31.3421 34.7581 30.8125 35.3381C30.283 35.9054 29.5139 36.1891 28.5052 36.1891ZM34.0341 22.7615H37.2113C38.2452 22.7615 39.0206 23.0389 39.5375 23.5937C40.0544 24.1484 40.3129 24.9616 40.3129 26.0333V32.7282C40.3129 33.7999 40.0544 34.6131 39.5375 35.1679C39.0206 35.7226 38.2452 36 37.2113 36H34.0341V22.7615ZM37.1735 34.1088C37.5139 34.1088 37.7724 34.0079 37.9489 33.8062C38.138 33.6045 38.2326 33.2767 38.2326 32.8228V25.9388C38.2326 25.4849 38.138 25.1571 37.9489 24.9553C37.7724 24.7536 37.5139 24.6527 37.1735 24.6527H36.1144V34.1088H37.1735ZM42.2466 34.1466L46.1047 24.6527H42.4358V22.7615H48.3363V24.6149L44.4783 34.1088H48.3363V36H42.2466V34.1466ZM50.4603 22.7615H56.1339V24.6527H52.5406V28.1515H55.3963V30.0427H52.5406V34.1088H56.1339V36H50.4603V22.7615ZM61.0176 36.1891C60.009 36.1891 59.2462 35.9054 58.7293 35.3381C58.2123 34.7581 57.9539 33.9323 57.9539 32.8606V32.1041H59.9207V33.0119C59.9207 33.8692 60.2801 34.2979 60.9987 34.2979C61.3517 34.2979 61.6165 34.197 61.793 33.9953C61.9821 33.781 62.0767 33.4406 62.0767 32.9741C62.0767 32.4193 61.9506 31.9339 61.6985 31.5178C61.4463 31.0892 60.9798 30.5785 60.299 29.986C59.4416 29.2295 58.8427 28.5486 58.5023 27.9435C58.1619 27.3257 57.9917 26.6322 57.9917 25.8631C57.9917 24.8167 58.2565 24.0097 58.786 23.4424C59.3155 22.8624 60.0846 22.5724 61.0933 22.5724C62.0893 22.5724 62.8395 22.8624 63.3438 23.4424C63.8607 24.0097 64.1192 24.8293 64.1192 25.9009V26.4494H62.1524V25.7686C62.1524 25.3147 62.0641 24.9869 61.8876 24.7851C61.7111 24.5708 61.4526 24.4636 61.1122 24.4636C60.4187 24.4636 60.072 24.886 60.072 25.7307C60.072 26.2098 60.1981 26.6574 60.4503 27.0735C60.715 27.4896 61.1878 27.9939 61.8687 28.5865C62.7386 29.3429 63.3375 30.0301 63.6653 30.6479C63.9931 31.2657 64.157 31.9906 64.157 32.8228C64.157 33.9071 63.886 34.7392 63.3438 35.3192C62.8143 35.8991 62.0389 36.1891 61.0176 36.1891ZM70.2699 22.7615H73.3337C74.3675 22.7615 75.1429 23.0389 75.6599 23.5937C76.1768 24.1484 76.4353 24.9616 76.4353 26.0333V27.3383C76.4353 28.4099 76.1768 29.2232 75.6599 29.7779C75.1429 30.3327 74.3675 30.6101 73.3337 30.6101H72.3503V36H70.2699V22.7615ZM73.3337 28.7188C73.6741 28.7188 73.9263 28.6243 74.0902 28.4352C74.2667 28.246 74.3549 27.9245 74.3549 27.4706V25.9009C74.3549 25.4471 74.2667 25.1255 74.0902 24.9364C73.9263 24.7473 73.6741 24.6527 73.3337 24.6527H72.3503V28.7188H73.3337ZM78.5107 22.7615H81.5934C82.6651 22.7615 83.4468 23.0137 83.9385 23.518C84.4302 24.0097 84.6761 24.7725 84.6761 25.8064V26.6196C84.6761 27.9939 84.2222 28.8638 83.3144 29.2295V29.2673C83.8187 29.4186 84.1717 29.7275 84.3735 30.194C84.5878 30.6605 84.695 31.2846 84.695 32.0663V34.3925C84.695 34.7707 84.7076 35.0796 84.7328 35.3192C84.758 35.5461 84.821 35.7731 84.9219 36H82.8038C82.7281 35.7857 82.6777 35.5839 82.6525 35.3948C82.6272 35.2057 82.6146 34.8653 82.6146 34.3736V31.9528C82.6146 31.3476 82.5138 30.9253 82.312 30.6857C82.1229 30.4462 81.7888 30.3264 81.3097 30.3264H80.591V36H78.5107V22.7615ZM81.3475 28.4352C81.7636 28.4352 82.0725 28.328 82.2742 28.1137C82.4886 27.8993 82.5957 27.54 82.5957 27.0357V26.0144C82.5957 25.5353 82.5075 25.1886 82.331 24.9743C82.1671 24.7599 81.9023 24.6527 81.5367 24.6527H80.591V28.4352H81.3475ZM90.091 36.1891C89.0697 36.1891 88.288 35.8991 87.7459 35.3192C87.2037 34.7392 86.9327 33.9197 86.9327 32.8606V25.9009C86.9327 24.8419 87.2037 24.0223 87.7459 23.4424C88.288 22.8624 89.0697 22.5724 90.091 22.5724C91.1122 22.5724 91.8939 22.8624 92.4361 23.4424C92.9782 24.0223 93.2493 24.8419 93.2493 25.9009V32.8606C93.2493 33.9197 92.9782 34.7392 92.4361 35.3192C91.8939 35.8991 91.1122 36.1891 90.091 36.1891ZM90.091 34.2979C90.8096 34.2979 91.169 33.8629 91.169 32.993V25.7686C91.169 24.8986 90.8096 24.4636 90.091 24.4636C89.3723 24.4636 89.013 24.8986 89.013 25.7686V32.993C89.013 33.8629 89.3723 34.2979 90.091 34.2979ZM95.6018 22.7615H98.779C99.8129 22.7615 100.588 23.0389 101.105 23.5937C101.622 24.1484 101.881 24.9616 101.881 26.0333V32.7282C101.881 33.7999 101.622 34.6131 101.105 35.1679C100.588 35.7226 99.8129 36 98.779 36H95.6018V22.7615ZM98.7412 34.1088C99.0816 34.1088 99.3401 34.0079 99.5166 33.8062C99.7057 33.6045 99.8003 33.2767 99.8003 32.8228V25.9388C99.8003 25.4849 99.7057 25.1571 99.5166 24.9553C99.3401 24.7536 99.0816 24.6527 98.7412 24.6527H97.6821V34.1088H98.7412ZM107.256 36.1891C106.248 36.1891 105.479 35.9054 104.949 35.3381C104.42 34.7581 104.155 33.9323 104.155 32.8606V22.7615H106.235V33.0119C106.235 33.4658 106.323 33.7936 106.5 33.9953C106.689 34.197 106.954 34.2979 107.294 34.2979C107.635 34.2979 107.893 34.197 108.07 33.9953C108.259 33.7936 108.353 33.4658 108.353 33.0119V22.7615H110.358V32.8606C110.358 33.9323 110.093 34.7581 109.564 35.3381C109.034 35.9054 108.265 36.1891 107.256 36.1891ZM112.785 22.7615H114.866V28.3406L117.513 22.7615H119.594L117.116 27.6219L119.631 36H117.456L115.698 30.0994L114.866 31.7826V36H112.785V22.7615ZM123.188 24.6527H121.013V22.7615H127.443V24.6527H125.268V36H123.188V24.6527ZM132.422 36.1891C131.413 36.1891 130.644 35.9054 130.115 35.3381C129.585 34.7581 129.32 33.9323 129.32 32.8606V22.7615H131.401V33.0119C131.401 33.4658 131.489 33.7936 131.665 33.9953C131.855 34.197 132.119 34.2979 132.46 34.2979C132.8 34.2979 133.059 34.197 133.235 33.9953C133.424 33.7936 133.519 33.4658 133.519 33.0119V22.7615H135.524V32.8606C135.524 33.9323 135.259 34.7581 134.729 35.3381C134.2 35.9054 133.431 36.1891 132.422 36.1891ZM140.655 36.1891C139.647 36.1891 138.884 35.9054 138.367 35.3381C137.85 34.7581 137.591 33.9323 137.591 32.8606V32.1041H139.558V33.0119C139.558 33.8692 139.918 34.2979 140.636 34.2979C140.989 34.2979 141.254 34.197 141.431 33.9953C141.62 33.781 141.714 33.4406 141.714 32.9741C141.714 32.4193 141.588 31.9339 141.336 31.5178C141.084 31.0892 140.617 30.5785 139.937 29.986C139.079 29.2295 138.48 28.5486 138.14 27.9435C137.8 27.3257 137.629 26.6322 137.629 25.8631C137.629 24.8167 137.894 24.0097 138.424 23.4424C138.953 22.8624 139.722 22.5724 140.731 22.5724C141.727 22.5724 142.477 22.8624 142.981 23.4424C143.498 24.0097 143.757 24.8293 143.757 25.9009V26.4494H141.79V25.7686C141.79 25.3147 141.702 24.9869 141.525 24.7851C141.349 24.5708 141.09 24.4636 140.75 24.4636C140.056 24.4636 139.71 24.886 139.71 25.7307C139.71 26.2098 139.836 26.6574 140.088 27.0735C140.353 27.4896 140.825 27.9939 141.506 28.5865C142.376 29.3429 142.975 30.0301 143.303 30.6479C143.631 31.2657 143.795 31.9906 143.795 32.8228C143.795 33.9071 143.524 34.7392 142.981 35.3192C142.452 35.8991 141.676 36.1891 140.655 36.1891Z" fill="white"/>
</svg>
