<svg width="172" height="37" viewBox="0 0 172 37" fill="none" xmlns="http://www.w3.org/2000/svg">
<path d="M2.3696 2.83553H5.17175L7.31568 16H5.24698L4.87085 13.3859V13.4235H2.52006L2.14393 16H0.225677L2.3696 2.83553ZM4.62637 11.6369L3.70486 5.12991H3.66724L2.76454 11.6369H4.62637ZM9.44962 4.71617H7.28689V2.83553H13.6811V4.71617H11.5183V16H9.44962V4.71617ZM15.0588 2.83553H17.1275V8.38342L19.7604 2.83553H21.8291L19.3654 7.66877L21.8667 16H19.7039L17.955 10.1324L17.1275 11.8062V16H15.0588V2.83553ZM23.2219 2.83553H25.2906V14.1194H28.6946V16H23.2219V2.83553ZM31.7347 2.83553H34.5369L36.6808 16H34.6121L34.236 13.3859V13.4235H31.8852L31.5091 16H29.5908L31.7347 2.83553ZM33.9915 11.6369L33.07 5.12991H33.0324L32.1297 11.6369H33.9915ZM30.9825 0.315477H35.308V1.78238H30.9825V0.315477ZM38.5496 16.0752C38.1734 16.0752 37.8537 16.0502 37.5904 16V14.1194C37.791 14.1695 38.0167 14.1946 38.2675 14.1946C38.6812 14.1946 38.9884 14.0943 39.189 13.8937C39.3896 13.6805 39.4899 13.3608 39.4899 12.9346V2.83553H41.5586V12.8781C41.5586 13.9564 41.3078 14.7588 40.8063 15.2854C40.3174 15.8119 39.5651 16.0752 38.5496 16.0752ZM43.4138 2.83553H45.4825V16H43.4138V2.83553ZM47.4079 2.83553H53.0499V4.71617H49.4767V8.19535H52.3164V10.076H49.4767V14.1194H53.0499V16H47.4079V2.83553ZM56.2334 4.71617H54.0707V2.83553H60.4649V4.71617H58.3021V16H56.2334V4.71617ZM65.2307 2.83553H67.2994V8.19535H69.5185V2.83553H71.5872V16H69.5185V10.076H67.2994V16H65.2307V2.83553ZM76.4942 16.1881C75.4787 16.1881 74.7013 15.8997 74.1622 15.323C73.6231 14.7462 73.3536 13.9313 73.3536 12.8781V5.95739C73.3536 4.90423 73.6231 4.08929 74.1622 3.51256C74.7013 2.93583 75.4787 2.64747 76.4942 2.64747C77.5098 2.64747 78.2871 2.93583 78.8262 3.51256C79.3653 4.08929 79.6349 4.90423 79.6349 5.95739V12.8781C79.6349 13.9313 79.3653 14.7462 78.8262 15.323C78.2871 15.8997 77.5098 16.1881 76.4942 16.1881ZM76.4942 14.3074C77.2089 14.3074 77.5662 13.8749 77.5662 13.0098V5.82575C77.5662 4.96065 77.2089 4.52811 76.4942 4.52811C75.7796 4.52811 75.4223 4.96065 75.4223 5.82575V13.0098C75.4223 13.8749 75.7796 14.3074 76.4942 14.3074ZM81.41 2.83553H84.0053L86.0176 10.7154H86.0552V2.83553H87.8982V16H85.7731L83.2907 6.38994H83.2531V16H81.41V2.83553ZM89.8119 2.83553H92.9714C93.9995 2.83553 94.7705 3.11136 95.2846 3.66301C95.7986 4.21467 96.0557 5.02334 96.0557 6.08904V12.7465C96.0557 13.8122 95.7986 14.6209 95.2846 15.1725C94.7705 15.7242 93.9995 16 92.9714 16H89.8119V2.83553ZM92.9338 14.1194C93.2723 14.1194 93.5293 14.0191 93.7049 13.8185C93.8929 13.6179 93.9869 13.2919 93.9869 12.8405V5.99501C93.9869 5.54365 93.8929 5.21767 93.7049 5.01707C93.5293 4.81647 93.2723 4.71617 92.9338 4.71617H91.8806V14.1194H92.9338ZM99.39 2.83553H102.192L104.336 16H102.267L101.891 13.3859V13.4235H99.5404L99.1643 16H97.246L99.39 2.83553ZM101.647 11.6369L100.725 5.12991H100.688L99.7849 11.6369H101.647ZM112.019 16.1881C111.028 16.1881 110.27 15.906 109.743 15.3418C109.229 14.7776 108.972 13.9814 108.972 12.9534V5.88217C108.972 4.85408 109.229 4.05795 109.743 3.49376C110.27 2.92956 111.028 2.64747 112.019 2.64747C113.009 2.64747 113.762 2.92956 114.276 3.49376C114.802 4.05795 115.066 4.85408 115.066 5.88217V7.27384H113.11V5.75052C113.11 4.93558 112.765 4.52811 112.075 4.52811C111.386 4.52811 111.041 4.93558 111.041 5.75052V13.1038C111.041 13.9062 111.386 14.3074 112.075 14.3074C112.765 14.3074 113.11 13.9062 113.11 13.1038V11.0915H115.066V12.9534C115.066 13.9814 114.802 14.7776 114.276 15.3418C113.762 15.906 113.009 16.1881 112.019 16.1881ZM119.706 16.1881C118.691 16.1881 117.913 15.8997 117.374 15.323C116.835 14.7462 116.566 13.9313 116.566 12.8781V5.95739C116.566 4.90423 116.835 4.08929 117.374 3.51256C117.913 2.93583 118.691 2.64747 119.706 2.64747C120.722 2.64747 121.499 2.93583 122.038 3.51256C122.577 4.08929 122.847 4.90423 122.847 5.95739V12.8781C122.847 13.9313 122.577 14.7462 122.038 15.323C121.499 15.8997 120.722 16.1881 119.706 16.1881ZM119.706 14.3074C120.421 14.3074 120.778 13.8749 120.778 13.0098V5.82575C120.778 4.96065 120.421 4.52811 119.706 4.52811C118.992 4.52811 118.634 4.96065 118.634 5.82575V13.0098C118.634 13.8749 118.992 14.3074 119.706 14.3074ZM124.622 2.83553H127.688C128.753 2.83553 129.531 3.08628 130.02 3.58779C130.509 4.07675 130.753 4.83528 130.753 5.86336V6.67203C130.753 8.03863 130.302 8.90373 129.399 9.26732V9.30493C129.9 9.45538 130.251 9.76255 130.452 10.2264C130.665 10.6903 130.772 11.3109 130.772 12.0883V14.4015C130.772 14.7776 130.784 15.0848 130.809 15.323C130.834 15.5486 130.897 15.7743 130.997 16H128.891C128.816 15.7869 128.766 15.5863 128.741 15.3982C128.716 15.2101 128.703 14.8716 128.703 14.3827V11.9754C128.703 11.3736 128.603 10.9536 128.402 10.7154C128.214 10.4772 127.882 10.3581 127.405 10.3581H126.691V16H124.622V2.83553ZM127.443 8.47745C127.857 8.47745 128.164 8.37088 128.365 8.15774C128.578 7.9446 128.684 7.58728 128.684 7.08577V6.07023C128.684 5.5938 128.597 5.24902 128.421 5.03588C128.258 4.82274 127.995 4.71617 127.631 4.71617H126.691V8.47745H127.443ZM132.583 2.83553H135.743C136.771 2.83553 137.542 3.11136 138.056 3.66301C138.57 4.21467 138.827 5.02334 138.827 6.08904V12.7465C138.827 13.8122 138.57 14.6209 138.056 15.1725C137.542 15.7242 136.771 16 135.743 16H132.583V2.83553ZM135.705 14.1194C136.044 14.1194 136.301 14.0191 136.476 13.8185C136.664 13.6179 136.758 13.2919 136.758 12.8405V5.99501C136.758 5.54365 136.664 5.21767 136.476 5.01707C136.301 4.81647 136.044 4.71617 135.705 4.71617H134.652V14.1194H135.705ZM140.599 2.83553H142.668V14.1194H146.072V16H140.599V2.83553ZM147.44 2.83553H153.082V4.71617H149.509V8.19535H152.349V10.076H149.509V14.1194H153.082V16H147.44V2.83553ZM157.374 16.1881C156.371 16.1881 155.613 15.906 155.099 15.3418C154.585 14.765 154.328 13.9438 154.328 12.8781V12.1259H156.284V13.0286C156.284 13.8811 156.641 14.3074 157.356 14.3074C157.707 14.3074 157.97 14.2071 158.145 14.0065C158.334 13.7934 158.428 13.4549 158.428 12.991C158.428 12.4393 158.302 11.9566 158.051 11.5429C157.801 11.1166 157.337 10.6088 156.66 10.0196C155.807 9.26732 155.212 8.59029 154.873 7.98848C154.535 7.37414 154.365 6.68457 154.365 5.91978C154.365 4.87916 154.629 4.07675 155.155 3.51256C155.682 2.93583 156.447 2.64747 157.45 2.64747C158.44 2.64747 159.186 2.93583 159.688 3.51256C160.202 4.07675 160.459 4.8917 160.459 5.95739V6.50278H158.503V5.82575C158.503 5.37439 158.415 5.04842 158.24 4.84781C158.064 4.63468 157.807 4.52811 157.468 4.52811C156.779 4.52811 156.434 4.94812 156.434 5.78813C156.434 6.26456 156.559 6.70965 156.81 7.12339C157.074 7.53713 157.544 8.03863 158.221 8.6279C159.086 9.38015 159.681 10.0635 160.007 10.6778C160.333 11.2921 160.496 12.013 160.496 12.8405C160.496 13.9188 160.227 14.7462 159.688 15.323C159.161 15.8997 158.39 16.1881 157.374 16.1881ZM164.748 16.1881C163.745 16.1881 162.986 15.906 162.472 15.3418C161.958 14.765 161.701 13.9438 161.701 12.8781V12.1259H163.657V13.0286C163.657 13.8811 164.014 14.3074 164.729 14.3074C165.08 14.3074 165.343 14.2071 165.519 14.0065C165.707 13.7934 165.801 13.4549 165.801 12.991C165.801 12.4393 165.676 11.9566 165.425 11.5429C165.174 11.1166 164.71 10.6088 164.033 10.0196C163.181 9.26732 162.585 8.59029 162.247 7.98848C161.908 7.37414 161.739 6.68457 161.739 5.91978C161.739 4.87916 162.002 4.07675 162.529 3.51256C163.055 2.93583 163.82 2.64747 164.823 2.64747C165.814 2.64747 166.56 2.93583 167.061 3.51256C167.575 4.07675 167.832 4.8917 167.832 5.95739V6.50278H165.876V5.82575C165.876 5.37439 165.788 5.04842 165.613 4.84781C165.437 4.63468 165.18 4.52811 164.842 4.52811C164.152 4.52811 163.808 4.94812 163.808 5.78813C163.808 6.26456 163.933 6.70965 164.184 7.12339C164.447 7.53713 164.917 8.03863 165.594 8.6279C166.459 9.38015 167.055 10.0635 167.381 10.6778C167.707 11.2921 167.87 12.013 167.87 12.8405C167.87 13.9188 167.6 14.7462 167.061 15.323C166.534 15.8997 165.763 16.1881 164.748 16.1881ZM0.771062 22.8355H3.8177C4.84578 22.8355 5.61684 23.1114 6.13088 23.663C6.64492 24.2147 6.90194 25.0233 6.90194 26.089V27.3867C6.90194 28.4524 6.64492 29.261 6.13088 29.8127C5.61684 30.3644 4.84578 30.6402 3.8177 30.6402H2.83976V36H0.771062V22.8355ZM3.8177 28.7595C4.15621 28.7595 4.40696 28.6655 4.56995 28.4774C4.74548 28.2894 4.83324 27.9697 4.83324 27.5183V25.9574C4.83324 25.506 4.74548 25.1863 4.56995 24.9983C4.40696 24.8102 4.15621 24.7162 3.8177 24.7162H2.83976V28.7595H3.8177ZM8.4016 22.8355H11.467C12.5327 22.8355 13.3101 23.0863 13.799 23.5878C14.288 24.0768 14.5325 24.8353 14.5325 25.8634V26.672C14.5325 28.0386 14.0811 28.9037 13.1784 29.2673V29.3049C13.6799 29.4554 14.031 29.7626 14.2316 30.2264C14.4447 30.6903 14.5513 31.3109 14.5513 32.0883V34.4015C14.5513 34.7776 14.5638 35.0848 14.5889 35.323C14.614 35.5486 14.6767 35.7743 14.777 36H12.6707C12.5954 35.7869 12.5453 35.5863 12.5202 35.3982C12.4951 35.2101 12.4826 34.8716 12.4826 34.3827V31.9754C12.4826 31.3736 12.3823 30.9536 12.1817 30.7154C11.9936 30.4772 11.6614 30.3581 11.1849 30.3581H10.4703V36H8.4016V22.8355ZM11.2226 28.4774C11.6363 28.4774 11.9435 28.3709 12.1441 28.1577C12.3572 27.9446 12.4638 27.5873 12.4638 27.0858V26.0702C12.4638 25.5938 12.376 25.249 12.2005 25.0359C12.0375 24.8227 11.7742 24.7162 11.4106 24.7162H10.4703V28.4774H11.2226ZM19.3529 36.1881C18.3374 36.1881 17.5601 35.8997 17.021 35.323C16.4818 34.7462 16.2123 33.9313 16.2123 32.8781V25.9574C16.2123 24.9042 16.4818 24.0893 17.021 23.5126C17.5601 22.9358 18.3374 22.6475 19.3529 22.6475C20.3685 22.6475 21.1458 22.9358 21.6849 23.5126C22.224 24.0893 22.4936 24.9042 22.4936 25.9574V32.8781C22.4936 33.9313 22.224 34.7462 21.6849 35.323C21.1458 35.8997 20.3685 36.1881 19.3529 36.1881ZM19.3529 34.3074C20.0676 34.3074 20.4249 33.8749 20.4249 33.0098V25.8257C20.4249 24.9607 20.0676 24.5281 19.3529 24.5281C18.6383 24.5281 18.281 24.9607 18.281 25.8257V33.0098C18.281 33.8749 18.6383 34.3074 19.3529 34.3074ZM24.2688 22.8355H27.4282C28.4563 22.8355 29.2274 23.1114 29.7414 23.663C30.2555 24.2147 30.5125 25.0233 30.5125 26.089V32.7465C30.5125 33.8122 30.2555 34.6209 29.7414 35.1725C29.2274 35.7242 28.4563 36 27.4282 36H24.2688V22.8355ZM27.3906 34.1194C27.7291 34.1194 27.9861 34.0191 28.1617 33.8185C28.3497 33.6179 28.4438 33.2919 28.4438 32.8405V25.995C28.4438 25.5437 28.3497 25.2177 28.1617 25.0171C27.9861 24.8165 27.7291 24.7162 27.3906 24.7162H26.3375V34.1194H27.3906ZM35.294 36.1881C34.291 36.1881 33.5262 35.906 32.9996 35.3418C32.473 34.765 32.2097 33.9438 32.2097 32.8781V22.8355H34.2785V33.0286C34.2785 33.4799 34.3662 33.8059 34.5417 34.0065C34.7298 34.2071 34.9931 34.3074 35.3316 34.3074C35.6701 34.3074 35.9271 34.2071 36.1027 34.0065C36.2907 33.8059 36.3848 33.4799 36.3848 33.0286V22.8355H38.3782V32.8781C38.3782 33.9438 38.115 34.765 37.5884 35.3418C37.0618 35.906 36.297 36.1881 35.294 36.1881ZM40.2277 22.8355H42.2964V28.3834L44.9293 22.8355H46.998L44.5344 27.6688L47.0356 36H44.8729L43.1239 30.1324L42.2964 31.8062V36H40.2277V22.8355ZM50.0082 24.7162H47.8455V22.8355H54.2397V24.7162H52.0769V36H50.0082V24.7162ZM58.6264 36.1881C57.6234 36.1881 56.8586 35.906 56.332 35.3418C55.8054 34.765 55.5421 33.9438 55.5421 32.8781V22.8355H57.6109V33.0286C57.6109 33.4799 57.6986 33.8059 57.8741 34.0065C58.0622 34.2071 58.3255 34.3074 58.664 34.3074C59.0025 34.3074 59.2595 34.2071 59.4351 34.0065C59.6231 33.8059 59.7172 33.4799 59.7172 33.0286V22.8355H61.7106V32.8781C61.7106 33.9438 61.4474 34.765 60.9208 35.3418C60.3942 35.906 59.6294 36.1881 58.6264 36.1881ZM66.9482 22.8355H69.0169V28.3834L71.6498 22.8355H73.7185L71.2549 27.6688L73.7561 36H71.5934L69.8444 30.1324L69.0169 31.8062V36H66.9482V22.8355ZM75.1114 22.8355H77.1801V34.1194H80.584V36H75.1114V22.8355ZM83.6242 22.8355H86.4263L88.5703 36H86.5016L86.1254 33.3859V33.4235H83.7746L83.3985 36H81.4803L83.6242 22.8355ZM85.881 31.6369L84.9594 25.1299H84.9218L84.0191 31.6369H85.881ZM82.8719 20.3155H87.1974V21.7824H82.8719V20.3155ZM92.5843 36.1881C91.5812 36.1881 90.8227 35.906 90.3087 35.3418C89.7946 34.765 89.5376 33.9438 89.5376 32.8781V32.1259H91.4935V33.0286C91.4935 33.8811 91.8508 34.3074 92.5654 34.3074C92.9165 34.3074 93.1798 34.2071 93.3553 34.0065C93.5434 33.7934 93.6374 33.4549 93.6374 32.991C93.6374 32.4393 93.512 31.9566 93.2613 31.5429C93.0105 31.1166 92.5466 30.6088 91.8696 30.0196C91.0171 29.2673 90.4215 28.5903 90.083 27.9885C89.7445 27.3741 89.5752 26.6846 89.5752 25.9198C89.5752 24.8792 89.8385 24.0768 90.3651 23.5126C90.8917 22.9358 91.6565 22.6475 92.6595 22.6475C93.6499 22.6475 94.3959 22.9358 94.8974 23.5126C95.4115 24.0768 95.6685 24.8917 95.6685 25.9574V26.5028H93.7126V25.8257C93.7126 25.3744 93.6249 25.0484 93.4493 24.8478C93.2738 24.6347 93.0168 24.5281 92.6783 24.5281C91.9887 24.5281 91.6439 24.9481 91.6439 25.7881C91.6439 26.2646 91.7693 26.7096 92.0201 27.1234C92.2834 27.5371 92.7535 28.0386 93.4305 28.6279C94.2956 29.3802 94.8912 30.0635 95.2171 30.6778C95.5431 31.2921 95.7061 32.013 95.7061 32.8405C95.7061 33.9188 95.4366 34.7462 94.8974 35.323C94.3709 35.8997 93.5998 36.1881 92.5843 36.1881ZM98.8857 24.7162H96.723V22.8355H103.117V24.7162H100.954V36H98.8857V24.7162ZM107.504 36.1881C106.501 36.1881 105.736 35.906 105.21 35.3418C104.683 34.765 104.42 33.9438 104.42 32.8781V22.8355H106.488V33.0286C106.488 33.4799 106.576 33.8059 106.752 34.0065C106.94 34.2071 107.203 34.3074 107.542 34.3074C107.88 34.3074 108.137 34.2071 108.313 34.0065C108.501 33.8059 108.595 33.4799 108.595 33.0286V22.8355H110.588V32.8781C110.588 33.9438 110.325 34.765 109.798 35.3418C109.272 35.906 108.507 36.1881 107.504 36.1881Z" fill="white"/>
</svg>
